<svg width="32" height="32" viewBox="0 0 32 32" fill="none" xmlns="http://www.w3.org/2000/svg">
<g clip-path="url(#clip0_2529_706)">
<path d="M2.055 17.0413C0.823125 17.3932 0 18.5036 0 19.75V23.5C0 24.7844 0.865625 25.8706 2.04437 26.2056C1.97375 25.7513 1.9375 25.2862 1.9375 24.8125C1.9375 17.9491 1.93244 18.3656 1.95 18.0269C1.96688 17.6931 2.0025 17.3644 2.055 17.0413ZM29.9444 17.0413C30.0225 17.5206 30.0625 18.0081 30.0625 18.5V24.8125C30.0625 25.2862 30.0263 25.7513 29.9556 26.2056C31.1344 25.8706 32 24.7844 32 23.5V19.75C32 18.4619 31.1287 17.3725 29.9444 17.0413ZM27.9375 16.9375H17.6012L14.445 18.5156C14.0544 18.7105 13.624 18.8121 13.1875 18.8125C12.665 18.8125 12.1531 18.6675 11.7087 18.3925C10.8737 17.8763 10.375 16.9819 10.375 16V11.34C6.70312 11.6575 3.8125 14.7475 3.8125 18.5V24.8125C3.8125 28.7756 7.03687 32 11 32H21C24.9631 32 28.1875 28.7756 28.1875 24.8125V18.5C28.1875 17.97 28.1294 17.4456 28.0156 16.9363C27.9894 16.9375 27.9638 16.9375 27.9375 16.9375ZM12.25 21.625C12.25 22.1427 11.8302 22.5625 11.3125 22.5625C10.7948 22.5625 10.375 22.1427 10.375 21.625V19.75C10.375 19.2323 10.7948 18.8125 11.3125 18.8125C11.8302 18.8125 12.25 19.2323 12.25 19.75V21.625ZM17.875 26.3125H14.125C13.6073 26.3125 13.1875 25.8927 13.1875 25.375C13.1875 24.8573 13.6073 24.4375 14.125 24.4375H17.875C18.3927 24.4375 18.8125 24.8573 18.8125 25.375C18.8125 25.8927 18.3927 26.3125 17.875 26.3125ZM21.625 21.625C21.625 22.1427 21.2052 22.5625 20.6875 22.5625C20.1698 22.5625 19.75 22.1427 19.75 21.625V19.75C19.75 19.2323 20.1698 18.8125 20.6875 18.8125C21.2052 18.8125 21.625 19.2323 21.625 19.75V21.625ZM3.8125 11.1512C4.90375 10.7644 5.6875 9.72188 5.6875 8.5C5.6875 6.94938 4.42562 5.6875 2.875 5.6875C1.32438 5.6875 0.0625 6.94938 0.0625 8.5C0.0625 9.72188 0.84625 10.7644 1.9375 11.1512C1.9375 12.8762 1.9375 14.1631 1.93687 15.125L2.6775 14.9131C2.97516 14.2266 3.35637 13.5794 3.8125 12.9862V11.1512Z" fill="white"/>
<path d="M27.9375 0H16.3125C14.0724 0 12.25 1.82244 12.25 4.0625V16C12.25 16.2486 12.3488 16.4871 12.5247 16.6629C12.7005 16.8387 12.9389 16.9375 13.1876 16.9375C13.3308 16.9375 13.4745 16.9047 13.6068 16.8385L17.1588 15.0625H27.9375C30.1776 15.0625 32 13.2401 32 11V4.0625C32 1.82244 30.1776 0 27.9375 0ZM27.25 10.375H17C16.4823 10.375 16.0625 9.95525 16.0625 9.4375C16.0625 8.91975 16.4823 8.5 17 8.5H27.25C27.7677 8.5 28.1875 8.91975 28.1875 9.4375C28.1875 9.95525 27.7677 10.375 27.25 10.375ZM27.25 6.625H17C16.4823 6.625 16.0625 6.20525 16.0625 5.6875C16.0625 5.16975 16.4823 4.75 17 4.75H27.25C27.7677 4.75 28.1875 5.16975 28.1875 5.6875C28.1875 6.20525 27.7677 6.625 27.25 6.625Z" fill="#FFC52D"/>
</g>
<defs>
<clipPath id="clip0_2529_706">
<rect width="32" height="32" fill="white"/>
</clipPath>
</defs>
</svg>
